<?xml version="1.0" encoding="UTF-8"?>
<!-- Generator: Adobe Illustrator 16.0.3, SVG Export Plug-In . SVG Version: 6.00 Build 0)  -->
<svg width="128" height="58.967" enable-background="new 0 0 842 595" version="1.1" viewBox="0 0 128 58.967" xml:space="preserve" xmlns="http://www.w3.org/2000/svg" xmlns:cc="http://creativecommons.org/ns#" xmlns:dc="http://purl.org/dc/elements/1.1/" xmlns:rdf="http://www.w3.org/1999/02/22-rdf-syntax-ns#"><metadata><rdf:RDF><cc:Work rdf:about=""><dc:format>image/svg+xml</dc:format><dc:type rdf:resource="http://purl.org/dc/dcmitype/StillImage"/><dc:title/></cc:Work></rdf:RDF></metadata>
<style>path {fill: #ffffff;}</style>
<g transform="matrix(.15519 0 0 .15519 -5.1549 -14.159)">
		<path d="m434.13 233.35c-1.855 0.896-5.951 1.92-11.199 1.92-13.696 0-22.016-8.576-22.016-21.696 0-14.208 9.92-22.72 23.104-22.72 5.184 0 8.832 1.024 10.432 1.856l-1.664 6.272c-2.048-0.896-4.928-1.664-8.447-1.664-8.769 0-15.104 5.504-15.104 15.872 0 9.472 5.504 15.488 15.04 15.488 3.136 0 6.464-0.64 8.576-1.536zm-15.552-44.287-6.592-7.616h5.889l3.647 4.224h0.128l3.521-4.224h5.823l-6.464 7.616z" style="fill:#fff"/>
		<path d="m464.98 215.49h-16.256v12.672h18.176v6.464h-26.048v-43.135h25.088v6.464h-17.216v11.136h16.256z" style="fill:#fff"/>
		<path d="m473.68 226.05c2.496 1.472 6.399 2.752 10.432 2.752 4.992 0 7.808-2.368 7.808-5.888 0-3.264-2.176-5.184-7.615-7.168-7.168-2.496-11.712-6.336-11.712-12.479 0-7.104 5.888-12.416 15.296-12.416 4.672 0 8.063 1.024 10.304 2.112l-1.856 6.4c-1.6-0.832-4.607-2.048-8.64-2.048-4.992 0-7.104 2.624-7.104 5.184 0 3.328 2.496 4.864 8.256 7.04 7.487 2.88 11.071 6.656 11.071 12.8 0 6.976-5.248 12.928-16.319 12.928-4.608 0-9.344-1.28-11.712-2.688z" style="fill:#fff"/>
		<path d="m507.02 191.49h7.808v19.839h0.192c1.023-1.664 2.112-3.2 3.136-4.672l11.328-15.167h9.664l-14.849 18.368 15.809 24.768h-9.216l-12.16-19.776-3.904 4.608v15.168h-7.808z" style="fill:#fff"/>
		<path d="m553.68 222.4-3.712 12.224h-8.128l13.824-43.135h10.048l14.016 43.135h-8.448l-3.903-12.224zm12.352-5.952-3.393-10.624c-0.832-2.624-1.536-5.568-2.176-8.063h-0.128c-0.64 2.496-1.28 5.504-2.048 8.063l-3.328 10.624zm4.992-34.943-8 7.68h-6.336l5.632-7.68z" style="fill:#fff"/>
		<path d="m437.77 303.64c-2.752 1.024-8.128 2.432-13.824 2.432-7.296 0-12.863-1.855-16.959-5.76-3.841-3.647-6.017-9.343-6.017-15.871 0.064-13.696 9.729-22.4 24-22.4 5.312 0 9.472 1.088 11.456 2.048l-1.729 6.336c-2.368-1.088-5.248-1.856-9.792-1.856-9.216 0-15.68 5.44-15.68 15.488 0 9.856 6.017 15.616 14.977 15.616 2.88 0 4.928-0.384 5.951-0.831v-10.816h-7.615v-6.208h15.231v21.822z" style="fill:#fff"/>
		<path d="m469.97 286.49h-16.256v12.672h18.176v6.464h-26.048v-43.135h25.088v6.464h-17.216v11.136h16.256z" style="fill:#fff"/>
		<path d="m496.46 306.33c-12.225 0-19.904-9.344-19.904-21.952 0-13.184 8.384-22.592 20.544-22.592 12.544 0 19.968 9.536 19.968 21.824 0 14.464-8.768 22.72-20.544 22.72zm0.384-6.336c7.616 0 11.903-7.04 11.903-16.064 0-8.128-4.031-15.808-11.903-15.808s-11.968 7.488-11.968 16.063c0 8.576 4.352 15.808 11.903 15.808h0.065z" style="fill:#fff"/>
		<path d="m523.85 262.49h7.872v36.543h17.728v6.592h-25.6z" style="fill:#fff"/>
		<path d="m570.57 306.33c-12.225 0-19.904-9.344-19.904-21.952 0-13.184 8.384-22.592 20.544-22.592 12.544 0 19.968 9.536 19.968 21.824 0 14.464-8.768 22.72-20.544 22.72zm0.384-6.336c7.616 0 11.903-7.04 11.903-16.064 0-8.128-4.031-15.808-11.903-15.808s-11.968 7.488-11.968 16.063c0 8.576 4.352 15.808 11.903 15.808h0.065z" style="fill:#fff"/>
		<path d="m632.52 303.64c-2.752 1.024-8.128 2.432-13.824 2.432-7.296 0-12.863-1.855-16.959-5.76-3.841-3.647-6.017-9.343-6.017-15.871 0.064-13.696 9.729-22.4 24-22.4 5.312 0 9.472 1.088 11.456 2.048l-1.729 6.336c-2.368-1.088-5.248-1.856-9.792-1.856-9.216 0-15.68 5.44-15.68 15.488 0 9.856 6.017 15.616 14.977 15.616 2.88 0 4.928-0.384 5.951-0.831v-10.816h-7.615v-6.208h15.231v21.822z" style="fill:#fff"/>
		<path d="m648.46 262.49v43.135h-7.872v-43.135z" style="fill:#fff"/>
		<path d="m688.4 304.35c-1.855 0.896-5.951 1.92-11.199 1.92-13.696 0-22.016-8.577-22.016-21.696 0-14.208 9.92-22.72 23.104-22.72 5.184 0 8.832 1.024 10.432 1.856l-1.664 6.272c-2.048-0.896-4.928-1.664-8.447-1.664-8.769 0-15.104 5.504-15.104 15.872 0 9.472 5.504 15.488 15.04 15.488 3.136 0 6.464-0.64 8.576-1.536z" style="fill:#fff"/>
		<path d="m695.12 262.49h7.808v19.839h0.192c1.023-1.664 2.112-3.2 3.136-4.672l11.328-15.167h9.664l-14.849 18.368 15.809 24.768h-9.216l-12.16-19.776-3.904 4.608v15.168h-7.808z" style="fill:#fff"/>
		<path d="m741.77 293.4-3.712 12.224h-8.128l13.824-43.135h10.048l14.016 43.135h-8.448l-3.903-12.224zm12.352-5.952-3.393-10.624c-0.832-2.624-1.536-5.568-2.176-8.063h-0.128c-0.64 2.496-1.28 5.504-2.048 8.063l-3.328 10.624zm4.991-34.943-8 7.68h-6.336l5.632-7.68z" style="fill:#fff"/>
		<path d="m403.09 368.05c2.496 1.473 6.399 2.752 10.432 2.752 4.992 0 7.808-2.367 7.808-5.888 0-3.264-2.176-5.185-7.615-7.168-7.168-2.496-11.712-6.336-11.712-12.479 0-7.104 5.888-12.416 15.296-12.416 4.672 0 8.063 1.023 10.304 2.111l-1.856 6.4c-1.6-0.832-4.607-2.048-8.64-2.048-4.992 0-7.104 2.624-7.104 5.185 0 3.327 2.496 4.863 8.256 7.039 7.487 2.881 11.071 6.656 11.071 12.8 0 6.976-5.248 12.929-16.319 12.929-4.608 0-9.344-1.281-11.712-2.688z" style="fill:#fff"/>
		<path d="m436.43 333.49h7.872v36.543h17.728v6.592h-25.6z" style="fill:#fff"/>
		<path d="m473.68 333.49v25.15c0 8.448 3.521 12.353 8.832 12.353 5.696 0 9.088-3.904 9.088-12.353v-25.15h7.872v24.639c0 13.313-6.848 19.2-17.216 19.2-9.984 0-16.448-5.567-16.448-19.136v-24.703z" style="fill:#fff"/>
		<path d="m505.61 372.28 22.08-32.064v-0.191h-20.16v-6.527h30.336v4.607l-21.76 31.808v0.192h22.079v6.527h-32.575zm14.016-41.088-6.592-7.615h5.888l3.648 4.223h0.128l3.52-4.223h5.824l-6.464 7.615z" style="fill:#fff"/>
		<path d="m544.72 334.13c2.496-0.512 7.04-0.959 11.52-0.959 5.76 0 9.408 0.768 12.288 2.752 2.688 1.6 4.48 4.416 4.48 8.127 0 3.969-2.496 7.553-7.168 9.28v0.192c4.544 1.152 8.703 4.736 8.703 10.623 0 3.841-1.664 6.849-4.096 8.896-3.072 2.688-8.128 4.031-16.063 4.031-4.353 0-7.616-0.319-9.664-0.575zm7.807 17.024h4.032c5.504 0 8.512-2.56 8.512-6.208 0-4.096-3.072-5.951-8.063-5.951-2.305 0-3.648 0.127-4.48 0.319v11.84zm0 19.777c1.024 0.191 2.368 0.191 4.16 0.191 5.056 0 9.6-1.855 9.6-7.232 0-4.991-4.416-7.039-9.855-7.039h-3.904v14.08z" style="fill:#fff"/>
		<path d="m590.22 364.4-3.712 12.224h-8.128l13.824-43.135h10.048l14.016 43.135h-8.448l-3.903-12.224zm12.352-5.952-3.393-10.624c-0.832-2.624-1.536-5.567-2.176-8.063h-0.128c-0.64 2.496-1.28 5.504-2.048 8.063l-3.328 10.624z" style="fill:#fff"/>
		<path d="m245.12 266.74-1.55-1.35-6.395-5.974-1.081-1.936 0.538-0.201c0.646-0.242 1.978-1.458 2.691-2.218l17.319-20.706c0.688-0.786 2.603-3.166 3.374-4.919 1.274-2.896 0.957-4.182-1.62-6.551-2.77-2.553-7.378-5.743-7.424-5.774l-0.342-0.235-0.313-1.628 4.679-7.039 1.531-0.373 0.337 0.176c0.044 0.023 5.362 2.971 8.317 5.025 2.969 2.063 7.878 5.478 10.621 8.021 0.321 0.299 0.629 0.582 0.933 0.861l0.137 0.125c2.191 2.016 4.259 3.918 8.943 9.055 2.705 2.968 5.097 6.359 7.866 10.287l1.263 1.789c6.729 9.499 8.383 16.332 8.45 16.618l0.167 0.714-2.218 1.346-4.394-3.827c-0.056-0.064-6.486-7.351-11.603-12.512-4.508-4.547-8.321-7.879-12.002-10.489-0.477-0.335-0.928-0.532-1.309-0.564-0.893-0.078-1.596 0.738-2.072 1.273-0.147 0.165-0.269 0.299-0.372 0.396-1.346 1.294-4.088 4.373-4.897 5.286l-0.057 0.064-16.916 20.378c-1.009 1.255-2.316 3.395-2.514 3.899zm-7.204-7.85 5.744 5.458c0.691-1.295 1.968-3.11 2.497-3.768l17.026-20.504c1.051-1.188 3.648-4.094 5.012-5.404 0.073-0.071 0.159-0.168 0.261-0.283 0.641-0.721 1.879-2.102 3.755-1.941 0.747 0.065 1.521 0.378 2.299 0.93 3.78 2.677 7.679 6.083 12.27 10.714 4.869 4.911 11.015 11.84 11.646 12.557l2.608 2.264c-0.78-2.377-2.883-7.716-7.739-14.572l-1.245-1.762c-2.75-3.901-5.109-7.245-7.729-10.118-4.623-5.072-6.661-6.946-8.817-8.929l-0.137-0.126c-0.306-0.281-0.617-0.567-0.94-0.868-2.638-2.446-7.474-5.81-10.364-7.82-2.478-1.721-6.616-4.066-7.814-4.736l-0.01 2e-3 -3.784 5.694 1e-3 7e-3c1.145 0.806 4.866 3.465 7.308 5.713 3.229 2.973 3.74 5.124 2.101 8.852-1.067 2.422-3.663 5.39-3.69 5.42l-17.357 20.749c-0.185 0.199-1.634 1.73-2.902 2.471z" style="fill:#fff"/>
		<path d="m137.37 301.26c-0.39-0.48-0.802-1.389-1.095-2.584-1.021-4.194 1.639-7.382 6.997-8.688 6.671-1.626 9.975 1.521 10.772 4.79 0.292 1.198 0.265 2.1 0.146 2.504l-2.477 0.027c0.1-0.487 0.149-0.96-0.064-1.831-0.485-1.989-2.708-3.611-7.447-2.456-4.662 1.136-5.885 3.396-5.347 5.602 0.166 0.679 0.486 1.321 0.747 1.72zm16.962-8.659 2.108-2.995 0.55 2.261-1.118 1.571 0.014 0.055 1.709 0.853 0.538 2.207-3.23-1.608z" style="fill:#fff"/>
		<path d="m148.54 308.78-1.622-4.182-5.29 2.051 1.844 4.757-2.298 0.892-2.929-7.553 16.662-6.456 2.807 7.233-2.299 0.892-1.722-4.441-4.574 1.773 1.622 4.181z" style="fill:#fff"/>
		<path d="m145.34 314.03c-0.013 0.805 0.298 2.04 0.768 2.9 0.887 1.623 2.254 2.027 3.557 1.315 1.257-0.687 1.536-1.892 1.682-3.729 0.11-2.454 0.971-4.585 2.669-5.512 2.444-1.336 5.33-0.644 7.021 2.458 0.577 1.058 0.799 2.181 0.785 2.764l-2.396 0.702c0.024-0.62-0.096-1.449-0.579-2.335-0.82-1.5-2.164-1.692-3.118-1.173-1.209 0.661-1.405 1.631-1.503 3.888-0.163 2.803-1.218 4.464-2.895 5.38-2.815 1.537-5.763 0.399-7.387-2.576-0.671-1.23-1.03-2.664-0.986-3.358z" style="fill:#fff"/>
		<path d="m163.35 315.79 1.767 2.389-6.63 4.904 0.05 0.067c0.797-0.172 1.615-0.359 2.413-0.529l6.584-1.174 1.967 2.658-8.82 1.051-5.496 9.644-1.934-2.614 4.462-7.345-1.847 0.181-5.115 3.785-1.768-2.39z" style="fill:#fff"/>
		<path d="m162.82 336.11-3.997 2.564-2.06-2.063 15.62-9.646 2.475 2.48-9.896 15.378-2.059-2.063 2.571-3.989zm4.013 0.869 2.354-3.457c0.647-1.003 1.633-2.342 2.376-3.361l-0.059-0.06c-1.021 0.742-2.439 1.761-3.385 2.388l-3.485 2.288zm12.448-8.62-4.519-0.361-1.565-1.568 3.825-0.333z" style="fill:#fff"/>
		<path d="m180.38 355.56c-0.853-0.191-2.309-0.789-3.401-1.525-1.604-1.083-2.646-2.394-2.995-4.132-0.417-2.041 0.278-4.676 2.066-7.274 3.796-5.532 8.427-5.478 11.494-3.41 1.092 0.737 1.795 1.498 2.12 2.069l-1.851 1.694c-0.271-0.503-0.763-1.026-1.553-1.559-2.022-1.363-4.83-1.211-7.646 2.967-2.712 4.022-2.005 6.482-0.355 7.595 0.418 0.283 0.705 0.413 0.887 0.438l2.803-4.153-1.674-1.129 1.304-1.936 3.974 2.68z" style="fill:#fff"/>
		<path d="m194.23 354.12-4.008-2.012-2.546 5.067 4.56 2.291-1.107 2.202-7.239-3.636 8.021-15.967 6.938 3.485-1.106 2.205-4.258-2.141-2.202 4.382 4.008 2.015z" style="fill:#fff"/>
		<path d="m199.13 365c-3.542-1.247-4.063-5.425-2.267-10.526 1.779-5.052 5.04-7.896 8.634-6.628 3.728 1.313 3.853 5.686 2.25 10.237-2.237 6.354-5.471 8.025-8.59 6.926zm0.978-2.269c1.823 0.644 3.471-2.178 4.661-5.556 1.074-3.052 1.655-6.39-0.249-7.061-1.877-0.659-3.639 2.233-4.713 5.368-1.198 3.318-1.603 6.577 0.274 7.238z" style="fill:#fff"/>
		<path d="m212.27 350.2 2.932 0.643-3.31 15.124 4.929 1.079-0.509 2.33-7.86-1.719z" style="fill:#fff"/>
		<path d="m223.48 370.49c-3.735-0.389-5.213-4.329-4.654-9.71 0.555-5.327 3.064-8.852 6.856-8.457 3.931 0.409 5.07 4.634 4.569 9.434-0.698 6.699-3.454 9.078-6.743 8.735zm0.422-2.435c1.923 0.199 2.87-2.928 3.241-6.487 0.335-3.219 0.123-6.6-1.884-6.809-1.979-0.206-3.021 3.018-3.335 6.318-0.392 3.506-0.028 6.769 1.952 6.974z" style="fill:#fff"/>
		<path d="m243.2 370.19c-0.803 0.345-2.334 0.707-3.651 0.746-1.933 0.057-3.544-0.398-4.843-1.608-1.528-1.412-2.5-3.957-2.566-7.111-0.143-6.707 3.647-9.365 7.346-9.474 1.316-0.038 2.332 0.17 2.929 0.444l-0.515 2.454c-0.512-0.25-1.218-0.387-2.17-0.36-2.438 0.073-4.628 1.836-4.479 6.87 0.144 4.85 2.153 6.436 4.143 6.376 0.504-0.015 0.811-0.077 0.977-0.162l-0.149-5.009-2.017 0.061-0.069-2.332 4.791-0.142z" style="fill:#fff"/>
		<path d="m247.86 352.07 2.254 17.728-2.975 0.378-2.255-17.726z" style="fill:#fff"/>
		<path d="m262.81 367.04c-0.492 0.378-1.412 0.766-2.617 1.026-4.22 0.911-7.335-1.836-8.5-7.227-1.448-6.713 1.785-9.933 5.073-10.645 1.205-0.259 2.105-0.21 2.506-0.079l-0.04 2.479c-0.483-0.114-0.954-0.176-1.832 0.015-2 0.432-3.68 2.61-2.65 7.38 1.012 4.691 3.24 5.976 5.458 5.496 0.685-0.147 1.335-0.45 1.741-0.701z" style="fill:#fff"/>
		<path d="m260.41 349.47 2.81-0.962 2.669 7.801 0.079-0.028c0.079-0.811 0.147-1.647 0.226-2.458l0.871-6.632 3.129-1.069-1.667 8.725 7.529 8.153-3.075 1.054-5.651-6.473-0.386 1.813 2.058 6.021-2.811 0.961z" style="fill:#fff"/>
		<path d="m277.43 338.18-1.78 4.167-1.984 0.984 0.902-3.732zm2.111 18.068 1.158 4.604-2.611 1.295-4.174-17.875 3.139-1.556 11.43 14.276-2.611 1.295-2.966-3.708zm2.1-3.525-2.529-3.333c-0.744-0.934-1.701-2.293-2.43-3.323l-0.076 0.036c0.378 1.206 0.894 2.874 1.188 3.971l1.06 4.031z" style="fill:#fff"/>
		<path d="m293.63 350.2c0.801-0.092 1.985-0.561 2.778-1.137 1.495-1.091 1.718-2.498 0.844-3.699-0.844-1.157-2.075-1.275-3.914-1.182-2.449 0.208-4.673-0.367-5.813-1.933-1.638-2.249-1.325-5.2 1.529-7.279 0.973-0.71 2.061-1.075 2.639-1.137l1.006 2.283c-0.617 0.057-1.424 0.284-2.24 0.878-1.381 1.008-1.398 2.365-0.758 3.244 0.813 1.113 1.799 1.183 4.049 0.986 2.799-0.203 4.583 0.629 5.708 2.171 1.889 2.592 1.142 5.662-1.599 7.659-1.134 0.824-2.508 1.366-3.202 1.414z" style="fill:#fff"/>
		<path d="m293.14 331.99 2.211-2.024 10.453 11.422 3.722-3.404 1.61 1.761-5.933 5.432z" style="fill:#fff"/>
		<path d="m301.47 323.87 8.942 7.656c2.194 1.88 3.52 1.759 4.286 0.865 0.857-1.002 0.737-2.246-1.478-4.145l-8.942-7.656 1.951-2.276 8.579 7.345c3.505 3 3.898 5.884 1.783 8.354-2.244 2.618-5.028 2.447-8.391-0.434l-8.681-7.432z" style="fill:#fff"/>
		<path d="m308.25 313.56-3.625 0.524 1.265-1.951 1.91-0.268 0.031-0.048-0.554-1.828 1.235-1.905 1.049 3.453zm12.262 12.623-8.113-12.639-0.045-0.029-3.063 4.729-2.07-1.342 4.893-7.551 1.713 1.11 7.886 12.259 0.068 0.043 3.246-5.012 2.07 1.342-5.183 7.999z" style="fill:#fff"/>
		<path d="m313 308.31c0.24-1.005 0.672-2.226 1.285-3.517 0.732-1.546 1.668-2.902 3.046-3.521 1.091-0.504 2.302-0.397 3.452 0.148 1.51 0.716 2.469 2.223 2.358 4.188l0.072 0.034c1.427-1.712 3.489-2.1 5.43-1.182 1.342 0.637 2.181 1.592 2.6 2.753 0.585 1.487 0.297 3.397-0.868 5.854-0.6 1.264-1.104 2.143-1.512 2.755zm7.767 0.39 0.371-0.785c0.66-1.395 0.135-3.008-1.327-3.699-1.343-0.638-2.661-0.454-3.453 1.217-0.191 0.404-0.325 0.746-0.359 1.009zm7.476 3.543c0.156-0.205 0.313-0.475 0.48-0.83 0.779-1.645 0.421-3.303-1.424-4.178-1.893-0.896-3.511 0.043-4.244 1.587l-0.372 0.786z" style="fill:#fff"/>
		<path d="m331.06 298.79 4.15 2.306-0.844 2.791-15.891-9.191 1.015-3.354 18.233 1.44-0.843 2.791-4.734-0.376zm-1.136-3.943-4.16-0.436c-1.19-0.096-2.837-0.331-4.086-0.504l-0.025 0.081c1.137 0.549 2.705 1.316 3.707 1.853l3.665 1.985z" style="fill:#fff"/>
	<path d="m241.42 271.54m-4.007 4.774c-7.738 9.257-23.513 28.205-24.229 29.063-0.308 0.424-3.836 5.269-4.718 6.626-0.228 0.352-0.461 0.823-0.708 1.321-0.715 1.452-1.605 3.256-3.411 4.345-0.572 0.346-1.198 0.522-1.859 0.522-2.091 0-4.113-1.76-6.069-3.462l-0.464-0.403c-0.298-0.259-0.605-0.519-0.916-0.781-2.13-1.809-4.143-3.518-4.541-5.234-0.582-2.51 5.044-6.75 5.101-6.793 1.44-1.036 3.219-2.945 4.789-4.631 0.535-0.577 1.045-1.124 1.509-1.603 0.955-0.985 7.657-8.699 14.139-16.161 4.565-5.254 9.25-10.646 12.397-14.233 0.118-0.135 0.235-0.268 0.35-0.398l1.182 2.097c-3.14 3.579-7.734 8.867-12.213 14.023-6.802 7.829-13.226 15.224-14.223 16.253-0.454 0.469-0.953 1.005-1.477 1.567-1.642 1.763-3.501 3.76-5.122 4.928-2.116 1.526-4.035 3.804-4.198 4.509 0.31 0.997 2.309 2.695 3.779 3.943 0.315 0.268 0.629 0.534 0.932 0.797l0.469 0.407c1.563 1.361 3.337 2.903 4.578 2.903 0.249 0 0.466-0.062 0.685-0.194 1.237-0.746 1.934-2.16 2.549-3.405 0.275-0.562 0.537-1.089 0.839-1.554 0.951-1.465 4.653-6.541 4.809-6.757l0.045-0.057c0.205-0.248 16.611-19.953 24.425-29.3 0.128-0.154 0.255-0.305 0.379-0.454z" style="fill:#fff"/>
		<path d="m270.85 318.19c-0.661 0-1.287-0.176-1.859-0.521-1.804-1.09-2.694-2.893-3.409-4.345-0.247-0.5-0.479-0.971-0.708-1.323-0.882-1.356-4.41-6.201-4.718-6.624-0.903-1.083-25.763-30.951-28.233-33.839-2.16-2.524-3.354-4.613-3.657-5.449l-0.286-0.56c-0.797-1.533-1.021-1.81-2.472-3.609l-16.943-20.408c-0.012-0.013-3.359-3.805-4.905-5.292-0.102-0.099-0.227-0.236-0.375-0.401-0.461-0.518-1.155-1.3-1.966-1.232-0.359 0.032-0.791 0.219-1.247 0.542-3.677 2.606-7.486 5.934-11.987 10.475-5.099 5.144-11.542 12.442-11.604 12.514l-0.167 0.166-4.304 3.725-2.378-1.442 0.191-0.805c0.068-0.289 1.755-7.177 8.472-16.659l1.234-1.747c2.781-3.946 5.182-7.354 7.903-10.336 4.672-5.126 6.742-7.03 8.933-9.046l0.05-0.046c0.339-0.31 0.68-0.624 1.037-0.955 2.751-2.555 7.645-5.957 10.569-7.99l0.061-0.042c2.998-2.083 8.262-4.996 8.314-5.026l0.389-0.213 1.639 0.4 4.736 7.122-0.331 1.724-0.379 0.265c-0.488 0.337-4.756 3.316-7.417 5.767-2.552 2.351-2.849 3.549-1.592 6.413 0.764 1.736 2.662 4.095 3.328 4.857l17.365 20.758c0.721 0.769 2.02 1.934 2.624 2.162l0.131 0.048 0.242 0.167c1.153 0.688 3.164 2.305 5.4 4.813 2.687 3.015 8.805 10.057 14.723 16.868 6.506 7.489 13.235 15.234 14.193 16.224 0.465 0.479 0.975 1.027 1.512 1.605 1.568 1.683 3.345 3.591 4.782 4.626 0.057 0.043 5.681 4.281 5.105 6.79-0.4 1.72-2.412 3.429-4.542 5.236-0.31 0.263-0.618 0.522-0.915 0.78l-0.461 0.4c-1.96 1.702-3.984 3.463-6.078 3.463zm-69.421-85.88c1.772 0 2.928 1.299 3.549 1.996 0.102 0.112 0.187 0.208 0.257 0.277 1.618 1.559 5.025 5.417 5.057 5.455l16.973 20.444c1.54 1.908 1.855 2.317 2.734 4.007l0.402 0.828c0.116 0.38 1.143 2.287 3.247 4.746 2.513 2.938 28.018 33.581 28.275 33.89l0.045 0.057c0.157 0.216 3.859 5.291 4.81 6.755 0.302 0.465 0.564 0.993 0.841 1.557 0.615 1.245 1.313 2.66 2.546 3.405 0.219 0.132 0.436 0.193 0.685 0.193 1.244 0 3.019-1.545 4.586-2.908l0.464-0.404c0.303-0.262 0.616-0.528 0.932-0.796 1.469-1.246 3.467-2.943 3.778-3.941-0.165-0.706-2.085-2.982-4.202-4.51-1.618-1.168-3.476-3.163-5.115-4.924-0.526-0.563-1.025-1.101-1.48-1.57-1-1.033-7.45-8.457-14.276-16.315-5.912-6.805-12.026-13.841-14.705-16.845-2.086-2.342-3.939-3.827-4.892-4.388l-0.126-0.084c-1.406-0.615-3.281-2.613-3.362-2.702l-0.041-0.045-17.368-20.763c-6e-3 -6e-3 -2.612-2.99-3.682-5.42-1.646-3.744-1.109-6.015 2.131-8.997 2.378-2.192 5.947-4.757 7.222-5.657l-3.66-5.503c-1.316 0.738-5.297 3.003-7.671 4.653l-0.06 0.042c-2.881 2.002-7.693 5.348-10.327 7.792-0.358 0.333-0.704 0.651-1.046 0.964l-0.817-0.791 0.769 0.834c-2.153 1.982-4.187 3.854-8.791 8.905-2.625 2.879-4.989 6.232-7.726 10.115l-1.235 1.75c-4.557 6.432-6.69 11.545-7.576 14.1l2.229-1.93c0.504-0.571 6.705-7.574 11.667-12.579 4.595-4.637 8.5-8.047 12.288-10.729 0.794-0.563 1.589-0.883 2.361-0.951 0.107-9e-3 0.209-0.013 0.31-0.013z" style="fill:#fff"/>
		<path d="m237.03 343.16-1.02-2e-3c-42.35-0.272-76.715-34.825-76.715-77.252 0-20.563 8.052-39.962 22.674-54.622 14.539-14.501 33.713-22.54 54.041-22.672v-1e-3l1.02 1e-3c20.374 0.131 39.571 8.171 54.109 22.672 14.623 14.659 22.674 34.058 22.674 54.622 0 42.427-34.396 76.98-76.783 77.252zm-0.51-2.529c41.226 0 74.764-33.524 74.764-74.725 0-19.911-7.792-38.669-21.943-52.821-14.151-14.15-32.91-21.944-52.82-21.944-19.902 0-38.635 7.793-52.749 21.944-14.151 14.151-21.944 32.91-21.944 52.821 0 41.2 33.507 74.725 74.692 74.725z" style="fill:#fff"/>
		<path d="m236.62 380.99h-0.036c-26.848 0-53.027-9.468-73.711-26.661-20.704-17.209-34.6-41.059-39.127-67.151l-0.041-0.236-0.276-0.275 31.377-6.223c-0.239-1.759-0.473-4.2-0.665-6.197l-0.077-0.8c-0.266-2.465-0.406-4.922-0.406-7.097 0-45.727 37.184-82.927 82.89-82.927h0.073c45.685 0.037 82.852 37.237 82.852 82.927 0 2.321-0.14 4.89-0.408 7.432-0.195 1.926-0.533 4.357-0.85 6.555l31.332 6.355-0.083 0.46 0.108 0.037-0.077 0.433c-4.568 25.87-18.517 49.563-39.275 66.709-20.769 17.193-46.908 26.659-73.6 26.659zm-110.02-92.396c4.749 24.784 18.197 47.417 37.91 63.775 20.224 16.805 45.819 26.058 72.069 26.058 26.117 0 51.686-9.254 72.031-26.058 19.865-16.423 33.38-39.03 38.094-63.704l-31.55-6.39 0.583-2.651 0.019 0.01c0.056-0.417 0.115-0.856 0.175-1.308 0.215-1.586 0.459-3.383 0.611-4.798 0.207-2.29 0.4-4.75 0.4-7.178 0-44.261-36.034-80.329-80.327-80.401h-0.072c-44.313 0-80.365 36.067-80.365 80.401 0 2.325 0.203 4.769 0.401 6.854 0.219 2.297 0.548 5.593 0.877 7.677l0.32 1.545z" style="fill:#fff"/>
		<path d="m172 261.87-2.221-1.347 0.17-0.717c0.069-0.287 1.758-7.164 8.453-16.614l1.234-1.748c2.778-3.941 5.177-7.344 7.893-10.324 4.671-5.125 6.739-7.027 8.93-9.042l0.093-0.087c0.323-0.296 0.65-0.596 0.989-0.912 2.747-2.549 7.636-5.947 10.556-7.977l0.06-0.042c2.994-2.079 8.251-4.99 8.303-5.019l0.345-0.191 1.544 0.378 4.68 7.037-0.311 1.621-0.333 0.235c-0.5 0.348-4.792 3.348-7.434 5.781-2.577 2.371-2.894 3.659-1.621 6.555 0.771 1.753 2.678 4.123 3.348 4.89l5.205 6.23-8.085 7.127-5.135-6.26c-0.011-0.011-3.36-3.806-4.911-5.298-0.1-0.096-0.224-0.232-0.37-0.395-0.476-0.535-1.192-1.343-2.07-1.273-0.388 0.035-0.828 0.224-1.308 0.564-3.685 2.609-7.5 5.942-12.005 10.489-5.033 5.076-11.546 12.449-11.609 12.519l-0.154 0.153z" style="fill:#fff"/>
		<path d="m301.36 261.7-4.311-3.755c-0.056-0.064-6.552-7.418-11.61-12.519-4.511-4.551-8.33-7.888-12.019-10.502-0.5-0.354-0.961-0.551-1.37-0.587-0.953-0.085-1.686 0.762-2.177 1.314-0.145 0.162-0.265 0.294-0.365 0.391-1.349 1.296-4.094 4.378-4.904 5.292l-0.057 0.063-5.134 6.123-7.873-6.827 5.201-6.25c0.69-0.79 2.615-3.182 3.394-4.952 1.303-2.962 0.979-4.276-1.65-6.696-2.784-2.563-7.393-5.752-7.438-5.783l-0.3-0.206-0.294-1.528 4.623-6.955 1.437-0.349 0.295 0.154c0.043 0.023 5.355 2.966 8.305 5.016 2.964 2.062 7.87 5.473 10.605 8.011 0.321 0.298 0.63 0.582 0.934 0.86l0.137 0.126c2.187 2.013 4.253 3.915 8.934 9.047 2.701 2.961 5.09 6.351 7.857 10.275l1.263 1.788c6.714 9.481 8.364 16.29 8.43 16.575l0.146 0.624z" style="fill:#fff"/>
		<path d="m219.96 314.6h-0.054l-2.89 1.564-0.504-2.202 3.792-2.093h2.438v17.232h-2.783v-14.501z" style="fill:#fff"/>
		<path d="m227.81 326.94c0.557 0 0.929-0.026 1.432-0.134 0.769-0.185 1.564-0.583 2.174-1.193 0.848-0.847 1.538-2.254 1.829-4.11h-0.079c-0.583 0.717-1.431 1.248-2.598 1.248-2.201 0-3.923-1.988-3.923-5.145 0-3.022 1.75-5.939 4.771-5.939 3.102 0 4.64 2.995 4.64 7 0 3.685-1.085 6.391-2.598 8.167-1.033 1.245-2.519 2.094-4.136 2.387-0.53 0.105-1.034 0.105-1.511 0.105v-2.386zm3.42-13.179c-0.928 0-1.829 1.141-1.803 3.606 0.026 2.067 0.716 3.366 1.936 3.366 0.716 0 1.378-0.504 1.697-1.166 0.105-0.318 0.159-0.637 0.159-1.511 0-2.891-0.823-4.296-1.962-4.296h-0.027z" style="fill:#fff"/>
		<path d="m241.6 314.6h-0.054l-2.89 1.564-0.504-2.202 3.792-2.093h2.438v17.232h-2.783v-14.501z" style="fill:#fff"/>
		<path d="m249.45 326.94c0.557 0 0.928-0.026 1.431-0.134 0.77-0.185 1.565-0.583 2.174-1.193 0.849-0.847 1.538-2.254 1.83-4.11h-0.079c-0.583 0.717-1.431 1.248-2.599 1.248-2.2 0-3.923-1.988-3.923-5.145 0-3.022 1.75-5.939 4.772-5.939 3.103 0 4.64 2.995 4.64 7 0 3.685-1.087 6.391-2.599 8.167-1.033 1.245-2.518 2.094-4.136 2.387-0.53 0.105-1.035 0.105-1.511 0.105zm3.421-13.179c-0.928 0-1.83 1.141-1.804 3.606 0.027 2.067 0.716 3.366 1.936 3.366 0.716 0 1.378-0.504 1.697-1.166 0.105-0.318 0.159-0.637 0.159-1.511 0-2.891-0.823-4.296-1.962-4.296h-0.026z" style="fill:#fff"/>
	<path d="m325.47 200.87" style="fill:#fff;stroke-width:3.5;stroke:#000"/>
</g>
</svg>
